<?xml version="1.0" standalone="no"?><!DOCTYPE svg PUBLIC "-//W3C//DTD SVG 1.1//EN" "http://www.w3.org/Graphics/SVG/1.1/DTD/svg11.dtd"><svg t="1656745625289" class="icon" viewBox="0 0 1024 1024" version="1.1" xmlns="http://www.w3.org/2000/svg" p-id="8346" xmlns:xlink="http://www.w3.org/1999/xlink" width="18" height="18"><defs><style type="text/css"></style></defs><path d="M618.688 840.512a59.712 59.712 0 1 1 0 119.488 59.712 59.712 0 0 1 0-119.488z m-238.976 0a59.712 59.712 0 1 1 0 119.488 59.712 59.712 0 0 1 0-119.488z m238.976-258.944a59.712 59.712 0 1 1 0 119.488 59.712 59.712 0 0 1 0-119.488z m-238.976 0a59.712 59.712 0 1 1 0 119.488 59.712 59.712 0 0 1 0-119.488z m238.976-258.624a59.712 59.712 0 1 1 0 119.488 59.712 59.712 0 0 1 0-119.488z m-238.976 0a59.712 59.712 0 1 1 0 119.488 59.712 59.712 0 0 1 0-119.488zM618.688 64a59.712 59.712 0 1 1 0 119.488 59.712 59.712 0 0 1 0-119.488zM379.712 64a59.712 59.712 0 1 1 0 119.488 59.712 59.712 0 0 1 0-119.488z" p-id="8347" fill="#1296db"></path></svg>