<?xml version="1.0" standalone="no"?><!DOCTYPE svg PUBLIC "-//W3C//DTD SVG 1.1//EN" "http://www.w3.org/Graphics/SVG/1.1/DTD/svg11.dtd"><svg t="1656728800787" class="icon" viewBox="0 0 1024 1024" version="1.1" xmlns="http://www.w3.org/2000/svg" p-id="3589" xmlns:xlink="http://www.w3.org/1999/xlink" width="16" height="16"><defs><style type="text/css"></style></defs><path d="M492.21632 954.12224C249.11872 938.27072 64.88064 727.4496 80.6912 483.20512c14.37696-222.04416 190.464-398.9504 411.52512-413.40928V20.48C222.0032 36.37248 15.7696 269.312 31.58016 540.75392c14.49984 249.28256 212.50048 448.18432 460.63616 462.76608v-49.39776z m284.79488-34.816l-28.2624-28.38528a436.87936 436.87936 0 0 1-200.04864 63.20128v49.31584a485.53984 485.53984 0 0 0 236.42112-77.4144 88.59648 88.59648 0 0 1-8.11008-6.71744z m184.60672-407.38816a441.91744 441.91744 0 0 1-83.18976 258.62144l22.9376 23.30624c3.93216 4.01408 7.49568 8.3968 10.60864 13.1072 162.32448-217.37472 118.53824-525.76256-97.81248-688.82432A488.36608 488.36608 0 0 0 548.57728 20.48v49.31584c232.0384 15.1552 412.63104 208.56832 412.91776 442.1632l0.12288-0.04096z m-746.2912-28.2624c15.5648-169.24672 164.74112-293.72416 333.16864-278.1184 146.88256 13.68064 263.20896 130.53952 276.80768 278.1184h73.76896c-15.60576-210.16576-197.8368-367.8208-407.06048-352.13312-187.47392 14.04928-336.4864 163.75808-350.49472 352.09216h73.76896z m618.94656 242.8928a380.5184 380.5184 0 0 0 64.79872-186.1632h-73.76896a306.87232 306.87232 0 0 1-44.15488 132.7104l53.12512 53.41184z m-185.22112 64.43008c-152.86272 71.8848-334.80704 5.65248-406.3232-147.94752a308.14208 308.14208 0 0 1-27.60704-102.64576H141.5168c15.40096 209.96096 197.30432 367.69792 406.3232 352.256a378.22464 378.22464 0 0 0 155.97568-46.6944l-54.76352-54.96832z" fill="#4073FF" fill-opacity=".403" p-id="3590"></path><path d="M866.5088 790.20032h0.12288c20.84864 20.6848 20.8896 54.23104 0 74.91584a53.61664 53.61664 0 0 1-75.40736 0L641.024 715.9808a242.15552 242.15552 0 0 1-255.87712-17.36704A238.05952 238.05952 0 0 1 332.3904 364.544c78.35648-106.74176 228.9664-130.21184 336.40448-52.4288a238.05952 238.05952 0 0 1 52.75648 334.11072l144.95744 143.9744zM392.92928 505.0368c0.04096 73.60512 60.08832 133.24288 134.22592 133.3248 74.1376 0 134.22592-59.71968 134.22592-133.3248S601.2928 371.75296 527.1552 371.75296s-134.22592 59.71968-134.22592 133.3248z" fill="#4073FF" p-id="3591"></path></svg>